<?xml version="1.0" encoding="UTF-8" standalone="no"?>
<!-- Created with Inkscape (http://www.inkscape.org/) -->

<svg
   width="211.70457mm"
   height="211.70457mm"
   viewBox="0 0 211.70457 211.70457"
   version="1.1"
   id="svg5"
   xml:space="preserve"
   inkscape:version="1.2.1 (9c6d41e410, 2022-07-14)"
   sodipodi:docname="Max 2023 favicon.svg"
   xmlns:inkscape="http://www.inkscape.org/namespaces/inkscape"
   xmlns:sodipodi="http://sodipodi.sourceforge.net/DTD/sodipodi-0.dtd"
   xmlns:xlink="http://www.w3.org/1999/xlink"
   xmlns="http://www.w3.org/2000/svg"
   xmlns:svg="http://www.w3.org/2000/svg"><sodipodi:namedview
     id="namedview7"
     pagecolor="#ffffff"
     bordercolor="#000000"
     borderopacity="0.25"
     inkscape:showpageshadow="2"
     inkscape:pageopacity="0.0"
     inkscape:pagecheckerboard="0"
     inkscape:deskcolor="#d1d1d1"
     inkscape:document-units="mm"
     showgrid="false"
     inkscape:zoom="0.73851712"
     inkscape:cx="239.66946"
     inkscape:cy="357.47309"
     inkscape:window-width="1920"
     inkscape:window-height="1009"
     inkscape:window-x="-8"
     inkscape:window-y="-8"
     inkscape:window-maximized="1"
     inkscape:current-layer="svg5" /><defs
     id="defs2"><clipPath
       clipPathUnits="userSpaceOnUse"
       id="clipPath8203"><path
         fill-rule="evenodd"
         clip-rule="evenodd"
         d="m 179.50198,100.81928 h -7.34224 V 74.120899 h 6.89719 v 3.337197 c 3.64876,-2.802956 6.49624,-4.049151 9.29975,-4.049151 2.35852,0 4.98355,1.023577 6.18503,4.004654 3.73802,-2.847626 6.58559,-4.004654 9.389,-4.004654 3.29266,0 6.71908,2.002441 6.71908,8.00953 V 100.81918 H 203.3079 V 83.999427 c 0,-2.225074 -0.9346,-3.114759 -2.35852,-3.114759 -1.24601,0 -2.66975,0.800735 -5.87381,3.292681 v 16.641931 h -7.34189 V 83.999427 c 0,-2.225053 -0.9346,-3.114741 -2.35806,-3.114741 -1.20147,0 -2.66993,0.800717 -5.87364,3.33719 z m 46.05403,0.71196 c 3.60425,0 6.71907,-1.33496 9.12203,-4.227343 V 100.819 h 6.98595 V 74.121142 h -6.98595 v 3.515109 c -2.40296,-2.892348 -5.51778,-4.227306 -9.12203,-4.227306 -7.29717,0 -13.3489,6.274019 -13.3489,14.061149 0,7.787158 6.05173,14.061146 13.3489,14.061146 z m -6.76332,-14.061146 c 0,-4.360736 3.5151,-7.876117 7.87584,-7.876117 4.36055,0 7.87602,3.515381 7.87602,7.876117 0,4.360735 -3.51547,7.876024 -7.87602,7.876024 -4.36074,9.2e-5 -7.87584,-3.515289 -7.87584,-7.876024 z m 1.82429,0 c 0,3.381613 2.71437,6.096069 6.05155,6.096069 3.33736,0 6.05182,-2.714364 6.05182,-6.096069 0,-3.381706 -2.71446,-6.09609 -6.05182,-6.09609 -3.33718,2.1e-5 -6.05155,2.714384 -6.05155,6.09609 z m 22.33773,13.349466 h 8.85505 c 2.09118,-3.381612 4.44933,-6.452099 7.16397,-9.344476 2.66984,2.892377 4.8945,5.962864 6.98605,9.344476 h 8.94381 c -3.07001,-4.672051 -6.40813,-9.122028 -10.41255,-13.526824 3.96037,-4.227531 7.34254,-8.588296 10.41255,-13.171461 h -8.7657 c -2.1807,3.381668 -4.53876,6.229519 -7.16416,9.03289 -2.67012,-2.803371 -5.02827,-5.651222 -7.16387,-9.03289 h -8.85515 c 3.02577,4.716623 6.4521,8.94393 10.45699,13.171461 -4.00489,4.404796 -7.43122,8.988165 -10.45699,13.526824 z"
         fill="#ffffff"
         id="path8205"
         style="fill:#ffffff;fill-opacity:1;stroke-width:0.937411" /></clipPath><clipPath
       clipPathUnits="userSpaceOnUse"
       id="clipPath8192"><g
         id="g8196"><rect
           width="102.74386"
           height="28.122295"
           fill="#ffffff"
           id="rect8194"
           x="27.063244"
           y="73.408943"
           style="stroke-width:0.93741" /></g></clipPath><radialGradient
       inkscape:collect="always"
       xlink:href="#linearGradient3406"
       id="radialGradient554"
       gradientUnits="userSpaceOnUse"
       gradientTransform="matrix(1.895876,0,0,1.8266517,-335.55443,-54.257817)"
       cx="232.6469"
       cy="87.652237"
       fx="232.6469"
       fy="87.652237"
       r="71.269508" /><linearGradient
       inkscape:collect="always"
       id="linearGradient3406"><stop
         style="stop-color:#0131fd;stop-opacity:1;"
         offset="0.3361111"
         id="stop3402" /><stop
         style="stop-color:#0124d4;stop-opacity:1;"
         offset="0.57222217"
         id="stop6324" /><stop
         style="stop-color:#0018ad;stop-opacity:1;"
         offset="0.70277774"
         id="stop3625" /><stop
         style="stop-color:#000f96;stop-opacity:1;"
         offset="0.78749996"
         id="stop4248" /><stop
         style="stop-color:#000066;stop-opacity:1;"
         offset="0.96944445"
         id="stop3404" /></linearGradient></defs><g
     inkscape:label="Layer 1"
     inkscape:groupmode="layer"
     id="layer1"
     transform="translate(22.460508,-31.582542)" /><rect
     style="fill:url(#radialGradient554);fill-opacity:1;stroke-width:0.594096;stroke-linecap:round;stroke-linejoin:round"
     id="rect552"
     width="211.70457"
     height="211.70457"
     x="-0.33705989"
     y="0" /><path
     fill-rule="evenodd"
     clip-rule="evenodd"
     d="M 34.405487,100.81928 H 27.063243 V 74.120899 h 6.897189 v 3.337198 c 3.648765,-2.802958 6.496241,-4.049151 9.299752,-4.049151 2.358524,0 4.983552,1.023576 6.18503,4.004652 3.738016,-2.847626 6.585585,-4.004652 9.389003,-4.004652 3.292652,0 6.719072,2.002439 6.719072,8.00953 V 100.81918 H 58.211402 V 83.999427 c 0,-2.225073 -0.934597,-3.114759 -2.358523,-3.114759 -1.246005,0 -2.669743,0.800735 -5.87381,3.29268 V 100.81928 H 42.637182 V 83.999427 c 0,-2.225054 -0.934598,-3.114741 -2.358054,-3.114741 -1.201479,0 -2.669931,0.800717 -5.873641,3.337189 z"
     fill="#ffffff"
     id="path431"
     style="fill:#ffffff;fill-opacity:1;stroke-width:0.93741"
     clip-path="none"
     transform="matrix(3.1530447,0,0,3.1530447,-40.436236,-168.66745)"
     sodipodi:nodetypes="cccccscssccsscccsscc" /></svg>
